<svg xmlns="http://www.w3.org/2000/svg" width="1400" height="820" viewBox="0 0 1400 820"><rect width="1400" height="820" fill="#0b1220"/><text x="70" y="75" fill="#ffffff" font-family="Arial,sans-serif" font-size="36" font-weight="700">Cloud Platform Engineering — Architecture</text><text x="70" y="112" fill="#a8b3c7" font-family="Arial,sans-serif" font-size="18">Reference architecture: delivery, infrastructure, Kubernetes, security, observability and operations</text><g font-family="Arial,sans-serif" font-size="17" fill="#ffffff" text-anchor="middle"><rect x="70" y="175" width="180" height="78" rx="12" fill="#17233a" stroke="#718096"/><text x="160" y="208">Developer</text><text x="160" y="234" fill="#a8b3c7" font-size="14">Change / PR</text><rect x="310" y="175" width="180" height="78" rx="12" fill="#17233a" stroke="#718096"/><text x="400" y="208">GitHub</text><text x="400" y="234" fill="#a8b3c7" font-size="14">Source of truth</text><rect x="550" y="175" width="220" height="78" rx="12" fill="#17233a" stroke="#718096"/><text x="660" y="208">CI Validation</text><text x="660" y="234" fill="#a8b3c7" font-size="14">Tests • IaC • Security</text><rect x="830" y="175" width="220" height="78" rx="12" fill="#17233a" stroke="#718096"/><text x="940" y="208">Terraform</text><text x="940" y="234" fill="#a8b3c7" font-size="14">Cloud foundation</text><rect x="1110" y="175" width="220" height="78" rx="12" fill="#17233a" stroke="#718096"/><text x="1220" y="208">GitOps</text><text x="1220" y="234" fill="#a8b3c7" font-size="14">Reconciliation</text><rect x="360" y="355" width="680" height="150" rx="16" fill="#111b2d" stroke="#8a9bb5" stroke-width="2"/><text x="700" y="395" font-size="25" font-weight="700">AWS + Kubernetes Platform</text><text x="700" y="430" fill="#a8b3c7">VPC • EKS • RBAC • quotas • limits • network policies</text><text x="700" y="462" fill="#a8b3c7">Helm • workloads • autoscaling • disruption controls</text><rect x="95" y="610" width="280" height="105" rx="14" fill="#17233a" stroke="#718096"/><text x="235" y="647" font-weight="700">Security & Policy</text><text x="235" y="676" fill="#a8b3c7" font-size="14">Kyverno • Trivy • Gitleaks</text><text x="235" y="698" fill="#a8b3c7" font-size="14">NetworkPolicy • least privilege</text><rect x="445" y="610" width="280" height="105" rx="14" fill="#17233a" stroke="#718096"/><text x="585" y="647" font-weight="700">Observability</text><text x="585" y="676" fill="#a8b3c7" font-size="14">Prometheus • Grafana</text><text x="585" y="698" fill="#a8b3c7" font-size="14">OpenTelemetry • SLO signals</text><rect x="795" y="610" width="230" height="105" rx="14" fill="#17233a" stroke="#718096"/><text x="910" y="647" font-weight="700">SRE</text><text x="910" y="676" fill="#a8b3c7" font-size="14">Error budgets</text><text x="910" y="698" fill="#a8b3c7" font-size="14">Incident response</text><rect x="1095" y="610" width="230" height="105" rx="14" fill="#17233a" stroke="#718096"/><text x="1210" y="647" font-weight="700">Operations</text><text x="1210" y="676" fill="#a8b3c7" font-size="14">Recovery • feedback</text><text x="1210" y="698" fill="#a8b3c7" font-size="14">Continuous improvement</text></g><g stroke="#8a9bb5" stroke-width="3" fill="none" marker-end="url(#a)"><path d="M250 214H310"/><path d="M490 214H550"/><path d="M770 214H830"/><path d="M1050 214H1110"/><path d="M940 253V355"/><path d="M1220 253V330H1040V380"/><path d="M520 505V610"/><path d="M700 505V610"/><path d="M880 505V610"/><path d="M1010 505V610"/></g><defs><marker id="a" markerWidth="10" markerHeight="10" refX="8" refY="3" orient="auto"><path d="M0,0 L0,6 L9,3 z" fill="#8a9bb5"/></marker></defs><text x="70" y="775" fill="#718096" font-family="Arial,sans-serif" font-size="14">Portfolio/reference implementation — architecture represents the engineering design, not a claim of production deployment.</text></svg>